<?xml version="1.0" standalone="no"?>
<!DOCTYPE svg PUBLIC "-//W3C//DTD SVG 1.1//EN" "http://www.w3.org/Graphics/SVG/1.1/DTD/svg11.dtd" >
<svg xmlns="http://www.w3.org/2000/svg">
<metadata>Generated by IcoMoon</metadata>
<defs>
<font id="icomoon" horiz-adv-x="1024">
<font-face units-per-em="1024" ascent="960" descent="-64" />
<missing-glyph horiz-adv-x="1024" />
<glyph unicode="&#x20;" horiz-adv-x="512" d="" />
<glyph unicode="&#xe900;" glyph-name="coffee" horiz-adv-x="1022" d="M887.353 869.492h-49.781l-13.828 67.055c-3.047 14.75-16.188 25.453-31.242 25.453h-562.775c-15.063 0-28.203-10.703-31.242-25.453l-13.836-67.055h-49.781c-21.984 0-39.867-17.883-39.867-39.867v-65.914c0-21.984 17.883-39.875 39.867-39.875h19.563l11.086-77.899c-3.359-1.938-6.422-4.414-9.023-7.406-6.656-7.68-9.656-17.852-8.227-27.922l74.008-519.978c2.039-14.344 12.813-25.719 26.422-29.078l10.531-74.031c4.023-28.234 28.555-49.524 57.070-49.524h389.634c28.516 0 53.047 21.289 57.070 49.524l10.531 74.031c13.609 3.359 24.383 14.734 26.422 29.078l74.008 519.978c1.43 10.070-1.57 20.242-8.227 27.922-2.602 2.992-5.664 5.469-9.031 7.406l11.094 77.899h19.563c21.984 0 39.867 17.891 39.867 39.875v65.914c-0.008 21.984-17.891 39.867-39.875 39.867zM844.228 614.843l-74.008-519.978c-0.352-2.469-2.492-4.32-4.977-4.32h-143.696c-8.289 0-15.008-6.719-15.008-15.016s6.719-15.016 15.008-15.016h121.508l-9.789-68.766c-1.93-13.523-13.68-23.727-27.344-23.727h-389.626c-13.664 0-25.414 10.203-27.344 23.727l-9.781 68.766h272.508c8.297 0 15.016 6.719 15.016 15.016s-6.719 15.016-15.016 15.016h-294.704c-2.484 0-4.625 1.852-4.977 4.32l-74.008 519.978c-0.281 1.977 0.617 3.359 1.18 4.008 0.539 0.617 1.711 1.602 3.539 1.695 0.203 0.008 0.398 0.023 0.609 0.039h655.579c0.203-0.016 0.406-0.031 0.609-0.039 1.828-0.094 3-1.078 3.539-1.695 0.563-0.648 1.461-2.031 1.18-4.008zM184.766 723.835h652.697l-10.422-73.227h-631.853zM897.197 763.711c0-5.43-4.414-9.844-9.844-9.844h-752.486c-5.422 0-9.844 4.414-9.844 9.844v65.914c0 5.43 4.422 9.844 9.844 9.844h134.352c8.289 0 15.008 6.719 15.008 15.016 0 8.289-6.719 15.008-15.008 15.008h-53.906l12.578 60.984c0.18 0.867 0.953 1.5 1.836 1.5h562.775c0.883 0 1.656-0.633 1.836-1.5l12.578-60.984h-467.829c-8.297 0-15.016-6.719-15.016-15.008 0-8.297 6.719-15.016 15.016-15.016h548.267c5.43 0 9.844-4.414 9.844-9.844zM624.048 479.155c-0.102 0.102-0.211 0.195-0.32 0.297-49.906 49.391-140.821 39.141-202.969-23.016-29.703-29.695-48.641-66.813-53.328-104.516-4.867-39.094 6.031-74.195 30.68-98.844 0-0.008 0.008-0.008 0.016-0.016 0.039-0.039 0.078-0.078 0.117-0.109 20.797-20.727 48.992-31.688 80.75-31.688 5.867 0 11.867 0.383 17.953 1.133 37.703 4.688 74.82 23.633 104.524 53.328 62.305 62.313 72.469 153.539 22.648 203.36-0.023 0.031-0.047 0.047-0.070 0.070zM397.227 348.218c3.867 31.102 19.766 61.992 44.758 86.992 29.945 29.945 67.438 45.727 100.961 45.727 15.406 0 29.961-3.352 42.57-10.18-25.211-14.977-64.36-44.438-76.266-88.102-10.359-37.961-66.563-80.016-97.406-99.516-12.563 17.258-17.75 39.914-14.617 65.078zM580.236 296.96c-25-25-55.891-40.891-86.992-44.758-21.969-2.734-42.031 0.867-58.258 10.18 30.961 20.438 90.266 64.828 103.235 112.375 10.586 38.836 52.43 64.985 71.539 75.149 29.719-39.563 17.75-105.664-29.523-152.946z" />
<glyph unicode="&#xe901;" glyph-name="coffee-beans" d="M971.973 776.661c-45.309 78.478-114.17 137.258-193.896 165.513-80.848 28.651-163.169 22.612-231.796-17.012-68.627-39.622-115.020-107.893-130.631-192.234-10.005-54.055-6.533-110.577 9.549-165.073-45.601 9.255-94.326 7.623-143.019-5.095-63.526-16.596-122.818-51.081-171.463-99.726-64.077-64.077-103.034-145.805-109.689-230.127-6.751-85.509 20.39-163.461 76.426-219.496 46.457-46.457 107.721-73.063 177.17-76.942 5.619-0.314 11.257-0.47 16.924-0.468 61.282 0.002 124.919 18.238 180.966 52.121 9.453 5.713 12.483 18.008 6.767 27.459-5.711 9.453-18.006 12.479-27.459 6.767-109.765-66.357-239.984-60.406-320.045 13.595 4.42 110.431 95.624 198.912 207.121 198.912 54.272 0 105.789 17.252 148.977 49.893 33.383 25.229 60.006 58.968 76.996 96.97 15.476-13.329 31.921-25.249 49.161-35.636 11.343-66.331-3.978-140.21-42.626-204.149-5.713-9.451-2.682-21.746 6.769-27.459 3.236-1.956 6.803-2.886 10.327-2.886 6.769 0 13.375 3.44 17.132 9.655 38.136 63.090 56.056 135.164 51.263 202.933 6.273-2.666 12.617-5.161 19.038-7.437 33.609-11.911 67.471-17.826 100.5-17.826 46.423 0 91.199 11.687 131.297 34.838 68.629 39.622 115.020 107.893 130.631 192.234 15.396 83.174-1.080 172.199-46.389 250.677zM318.898 274.852c-119.182 0-218.936-84.745-242.183-197.14-65.537 101.916-42.098 252.656 62.286 357.040 85.251 85.253 203.143 119.070 302.797 87.607 5.941-13.611 12.683-27.007 20.244-40.106 14.882-25.779 32.323-49.415 51.837-70.559-29.375-81.11-107.935-136.842-194.98-136.842zM669.296 354.438c-70.761 25.077-132.065 77.572-172.618 147.813-81.452 141.082-53.075 311.178 62.45 383.939 105.545-32.839 167.423-143.847 138.562-251.556-17.096-63.806-8.323-130.449 24.705-187.655 24.5-42.436 60.178-75.898 103.010-97.332-48.603-15.618-102.6-14.171-156.108 4.792zM874.883 372.724c-49.923 15.508-91.561 48.719-117.848 94.25-27.687 47.955-35.042 103.821-20.71 157.306 30.847 115.12-25.191 233.41-127.739 284.955 115.402 36.924 254.942-24.729 328.753-152.573 81.45-141.082 53.073-311.182-62.456-383.939zM512.942 80.815c-5.259 0-10.419-2.14-14.139-5.859-3.74-3.72-5.859-8.879-5.859-14.139s2.12-10.419 5.859-14.139c3.72-3.72 8.859-5.859 14.139-5.859 5.259 0 10.419 2.14 14.139 5.859s5.859 8.879 5.859 14.139-2.14 10.419-5.859 14.139-8.879 5.859-14.139 5.859z" />
<glyph unicode="&#xe902;" glyph-name="coffee-cup" d="M1004 547h-164v42.334c0 11.046-8.956 20-20 20h-432c-11.044 0-20-8.954-20-20s8.956-20 20-20h412v-153.332c0-134.696-71.914-259.884-188.036-328h-383.928c-116.122 68.114-188.036 193.304-188.036 327.998v153.332h134c11.044 0 20 8.954 20 20s-8.956 20-20 20h-154c-11.044 0-20-8.954-20-20v-173.332c0-75.6 20.32-149.728 58.764-214.366 25.926-43.594 59.566-82.090 98.96-113.634h-137.724c-11.044 0-20-8.954-20-20 0-72.786 59.214-132 132-132h624c72.786 0 132 59.214 132 132 0 11.046-8.956 20-20 20h-185.724c36.258 29.032 67.624 63.966 92.604 103.334h56.454c106.236 0 192.666 86.43 192.666 192.666v143c0 11.046-8.954 20-20 20zM845.81 48c-9.156-41.144-45.948-72-89.81-72h-624c-43.862 0-80.652 30.856-89.81 72h803.62zM840 416v11h64v-43c0-40.068-32.598-72.666-72.666-72.666h-4.542c8.73 34.012 13.208 69.176 13.208 104.666zM984 384c0-84.18-68.486-152.666-152.666-152.666h-34.040c6.386 13.042 12.090 26.394 17.074 40h16.966c62.126 0 112.666 50.542 112.666 112.666v63c0 11.046-8.956 20-20 20h-84v40h144v-123zM439.098 849.314l-10.406 13.066c-15.276 19.176-15.298 45.982-0.054 65.186 6.868 8.652 5.42 21.232-3.232 28.098-8.654 6.87-21.232 5.42-28.1-3.232-26.884-33.872-26.844-81.15 0.098-114.974l10.406-13.066c19.962-25.060 19.992-60.090 0.072-85.188l-10.664-13.436c-6.868-8.652-5.42-21.232 3.232-28.098 3.678-2.918 8.064-4.336 12.42-4.336 5.892 0 11.73 2.592 15.68 7.568l10.664 13.436c31.56 39.764 31.514 95.268-0.116 134.976zM549.956 804.346l-10.406 13.064c-15.276 19.178-15.298 45.984-0.054 65.188 6.868 8.652 5.42 21.232-3.232 28.098-8.654 6.87-21.232 5.42-28.1-3.232-26.884-33.872-26.844-81.15 0.098-114.976l10.406-13.066c19.96-25.062 19.99-60.094 0.070-85.19l-10.662-13.434c-6.868-8.652-5.42-21.232 3.232-28.098 3.678-2.918 8.064-4.334 12.42-4.334 5.892 0 11.732 2.594 15.68 7.568l10.66 13.434c31.562 39.762 31.516 95.266-0.112 134.978zM328.24 804.344l-10.406 13.064c-15.276 19.176-15.298 45.984-0.056 65.188 6.868 8.652 5.42 21.232-3.232 28.1-8.654 6.868-21.232 5.416-28.1-3.232-26.882-33.872-26.842-81.152 0.1-114.976l10.406-13.066c19.96-25.062 19.99-60.094 0.072-85.188l-10.664-13.434c-6.868-8.652-5.422-21.232 3.23-28.1 3.678-2.918 8.062-4.336 12.42-4.336 5.892 0 11.73 2.592 15.678 7.566l10.666 13.436c31.56 39.762 31.514 95.266-0.114 134.978zM300.56 603.48c-3.72 3.72-8.88 5.86-14.14 5.86s-10.42-2.14-14.14-5.86c-3.718-3.74-5.86-8.88-5.86-14.14s2.14-10.42 5.86-14.16c3.72-3.72 8.88-5.84 14.14-5.84s10.42 2.12 14.14 5.84c3.738 3.74 5.86 8.88 5.86 14.16 0 5.26-2.122 10.42-5.86 14.14zM724 436c-11.044 0-20-8.954-20-20 0-74.238-30.112-147.196-82.616-200.166-7.776-7.844-7.718-20.508 0.126-28.284 3.9-3.866 8.99-5.796 14.080-5.796 5.148 0.002 10.296 1.978 14.206 5.924 59.868 60.4 94.204 143.62 94.204 228.322 0 11.046-8.956 20-20 20zM587.77 161.55c-5.428 9.622-17.626 13.020-27.246 7.594l-0.456-0.258c-9.622-5.428-13.020-17.626-7.594-27.246 3.676-6.516 10.454-10.178 17.438-10.178 3.328 0 6.704 0.834 9.808 2.584l0.456 0.258c9.622 5.428 13.020 17.626 7.594 27.246z" />
<glyph unicode="&#xe903;" glyph-name="icon_arrow-down" d="M1024 448l-89.6 89.6-358.4-355.2v777.6h-128v-777.6l-358.4 355.2-89.6-89.6 512-512z" />
<glyph unicode="&#xe904;" glyph-name="icon_arrow-dropdown" horiz-adv-x="1658" d="M194.88 960l634.24-632.96 634.24 632.96 194.88-194.88-829.12-829.12-829.12 829.12z" />
<glyph unicode="&#xe905;" glyph-name="icon_arrow-left" d="M512-64l89.6 89.6-355.2 358.4h777.6v128h-777.6l355.2 358.4-89.6 89.6-512-512z" />
<glyph unicode="&#xe906;" glyph-name="icon_arrow-right" d="M512 960l-89.6-89.6 355.2-358.4h-777.6v-128h777.6l-355.2-358.4 89.6-89.6 512 512z" />
<glyph unicode="&#xe907;" glyph-name="icon_arrow-right-long" horiz-adv-x="1506" d="M993.92 960l-90.24-90.24 357.12-357.76h-1260.8v-128h1260.8l-357.76-357.12 90.88-90.88 512 512z" />
<glyph unicode="&#xe908;" glyph-name="icon_arrow-up" d="M0 448l89.6-89.6 358.4 355.2v-777.6h128v777.6l358.4-355.2 89.6 89.6-512 512z" />
<glyph unicode="&#xe909;" glyph-name="icon_bbh" horiz-adv-x="781" d="M259.2 9.6c-3.2 0-6.4 3.2-9.6 3.2-6.4 6.4-9.6 16-3.2 22.4 6.4 9.6 16 19.2 22.4 28.8 16 25.6 32 51.2 44.8 76.8 12.8 28.8 25.6 57.6 35.2 86.4 9.6 32 19.2 60.8 22.4 92.8 6.4 32 12.8 64 12.8 99.2 3.2 32 3.2 64 3.2 96 0 9.6 6.4 16 16 16v0c9.6 0 16-6.4 16-16 0 0 0 0 0 0 0-35.2-3.2-70.4-6.4-102.4-3.2-35.2-9.6-70.4-16-102.4s-16-67.2-25.6-99.2c-9.6-32-22.4-60.8-35.2-92.8-12.8-28.8-28.8-57.6-48-83.2 0-3.2-6.4-12.8-16-22.4-3.2-3.2-9.6-3.2-12.8-3.2zM352-41.6c-3.2 0-6.4 3.2-9.6 3.2-6.4 6.4-9.6 16-3.2 22.4 9.6 12.8 19.2 25.6 25.6 41.6 16 28.8 32 60.8 44.8 92.8 12.8 35.2 25.6 67.2 32 102.4 9.6 38.4 16 76.8 22.4 115.2 9.6 57.6 16 179.2 16 188.8 3.2 41.6-25.6 76.8-67.2 83.2-3.2 0-6.4 0-9.6 0h-3.2c-41.6-6.4-73.6-44.8-70.4-86.4v0c0-3.2-6.4-112-16-163.2-6.4-32-16-67.2-25.6-99.2s-22.4-60.8-35.2-89.6c-12.8-25.6-28.8-51.2-48-76.8-3.2-6.4-9.6-12.8-16-16-6.4-6.4-16-6.4-19.2 0 0 0 0 0 0 0-6.4 6.4-6.4 16-3.2 22.4s9.6 9.6 12.8 16c16 22.4 32 44.8 44.8 70.4s25.6 54.4 35.2 83.2c9.6 32 19.2 60.8 25.6 92.8 6.4 51.2 12.8 102.4 12.8 156.8 0 60.8 41.6 112 99.2 121.6h6.4c57.6 6.4 105.6-48 105.6-115.2v0c0-6.4-6.4-134.4-16-195.2-6.4-41.6-12.8-80-25.6-118.4-9.6-35.2-19.2-73.6-35.2-108.8-12.8-32-28.8-64-44.8-96-9.6-16-16-28.8-25.6-41.6 3.2-3.2-3.2-6.4-9.6-6.4zM460.8-64c-3.2 0-6.4 3.2-6.4 3.2-6.4 6.4-9.6 16-6.4 25.6 9.6 16 16 32 25.6 51.2 16 38.4 32 76.8 41.6 115.2 12.8 44.8 22.4 89.6 32 137.6 16 86.4 22.4 172.8 25.6 262.4 0 25.6-3.2 48-9.6 73.6-12.8 41.6-41.6 80-83.2 99.2-22.4 9.6-48 12.8-70.4 9.6-6.4 0-12.8-3.2-19.2-3.2-28.8-6.4-57.6-22.4-80-41.6s-38.4-44.8-51.2-67.2c-12.8-25.6-19.2-54.4-16-83.2v0c-3.2-64-12.8-124.8-25.6-185.6-9.6-32-22.4-64-35.2-92.8-12.8-25.6-28.8-51.2-48-73.6l-6.4-9.6c-6.4-6.4-16-6.4-22.4 0 0 0 0 0 0 0-6.4 3.2-9.6 12.8-3.2 19.2 0 0 0 0 0 0l3.2 6.4c19.2 22.4 32 44.8 44.8 70.4 12.8 28.8 25.6 57.6 35.2 86.4 12.8 57.6 19.2 115.2 22.4 176 0 32 6.4 67.2 19.2 96s35.2 57.6 57.6 76.8c28.8 25.6 60.8 41.6 96 51.2 6.4 3.2 16 3.2 22.4 3.2 28.8 3.2 57.6 0 83.2-9.6 51.2-22.4 86.4-67.2 99.2-121.6 6.4-28.8 12.8-57.6 12.8-86.4 0-89.6-9.6-182.4-25.6-272-6.4-48-19.2-96-32-140.8-12.8-41.6-25.6-80-41.6-121.6-6.4-19.2-16-35.2-25.6-51.2 0-3.2-6.4-3.2-12.8-3.2zM585.6-32c-3.2 0-3.2 0-6.4 3.2-9.6 6.4-12.8 16-9.6 25.6 6.4 16 9.6 32 16 48 16 51.2 28.8 105.6 38.4 160 19.2 108.8 32 217.6 35.2 329.6v0c0 32-3.2 64-9.6 96-6.4 28.8-16 57.6-28.8 83.2-16 28.8-38.4 51.2-64 70.4-28.8 22.4-67.2 35.2-102.4 38.4-16 0-32 0-51.2-3.2-16-3.2-32-6.4-44.8-9.6-28.8-9.6-57.6-25.6-83.2-44.8-22.4-25.6-48-48-67.2-76.8-38.4-51.2-57.6-112-57.6-176 3.2-64-9.6-131.2-32-192-9.6-28.8-25.6-54.4-41.6-76.8-6.4-6.4-16-6.4-22.4 0-6.4 3.2-9.6 12.8-6.4 19.2 0 0 0 0 0 0 16 22.4 28.8 44.8 41.6 70.4 22.4 57.6 35.2 115.2 32 176 0 70.4 22.4 137.6 64 192 22.4 32 48 57.6 80 83.2 28.8 22.4 60.8 38.4 96 51.2 16 6.4 32 9.6 51.2 12.8s38.4 3.2 57.6 3.2c41.6-3.2 80-16 115.2-41.6 28.8-19.2 54.4-48 70.4-80 16-28.8 25.6-60.8 32-92.8 6.4-35.2 9.6-70.4 9.6-105.6-3.2-115.2-16-227.2-38.4-339.2-9.6-54.4-22.4-112-41.6-163.2-6.4-16-9.6-32-16-48-3.2-9.6-9.6-12.8-16-12.8zM723.2 118.4h-3.2c-9.6 6.4-12.8 16-9.6 25.6 19.2 86.4 28.8 172.8 35.2 259.2 6.4 73.6 6.4 128 6.4 128v0c3.2 60.8-6.4 121.6-22.4 182.4-16 51.2-41.6 99.2-80 140.8-32 32-70.4 54.4-112 64-35.2 9.6-73.6 9.6-108.8 6.4l-16-3.2c-28.8-6.4-57.6-12.8-83.2-25.6-32-12.8-60.8-28.8-86.4-51.2-28.8-22.4-54.4-44.8-76.8-70.4s-44.8-54.4-60.8-86.4c-32-54.4-48-115.2-44.8-179.2 3.2-54.4-9.6-108.8-28.8-156.8-3.2-6.4-12.8-9.6-19.2-6.4-9.6 0-12.8 9.6-12.8 16 0 0 0 0 0 0 22.4 44.8 32 96 28.8 144-3.2 67.2 12.8 134.4 48 192 19.2 32 41.6 64 67.2 92.8 22.4 28.8 51.2 54.4 80 76.8s64 41.6 96 57.6c28.8 12.8 60.8 22.4 89.6 28.8l16 3.2c38.4 6.4 80 3.2 118.4-6.4 48-12.8 89.6-35.2 121.6-70.4 41.6-41.6 70.4-92.8 86.4-150.4 19.2-64 25.6-131.2 22.4-198.4 0-3.2 0-57.6-6.4-131.2-6.4-89.6-16-182.4-35.2-268.8 3.2-6.4-3.2-12.8-9.6-12.8z" />
<glyph unicode="&#xe90a;" glyph-name="icon_envelope" horiz-adv-x="1478" d="M1462.4 835.2l-384-387.2c-3.2-3.2-3.2-6.4 0-9.6v0 0l268.8-284.8c16-19.2 16-44.8 0-64v0c-19.2-16-44.8-16-64 0l-265.6 284.8c-3.2 3.2-6.4 3.2-9.6 0v0l-64-67.2c-54.4-54.4-128-86.4-204.8-86.4-80 0-153.6 32-208 89.6l-60.8 64c-3.2 3.2-6.4 3.2-9.6 0v0l-268.8-288c-22.4-12.8-51.2-6.4-64 16-9.6 16-9.6 35.2 0 48v0l268.8 284.8c3.2 3.2 3.2 6.4 0 9.6l-384 390.4c-3.2 3.2-6.4 3.2-9.6 0s-3.2-3.2-3.2-6.4v-777.6c0-64 51.2-115.2 115.2-115.2h1248c64 0 115.2 51.2 115.2 115.2v777.6c0 3.2-3.2 6.4-6.4 6.4-6.4 0-6.4 0-9.6 0zM736 313.6c51.2 0 102.4 19.2 137.6 57.6l560 563.2c-19.2 16-44.8 25.6-70.4 25.6h-1251.2c-25.6 0-48-9.6-70.4-25.6l553.6-563.2c38.4-38.4 89.6-57.6 140.8-57.6z" />
<glyph unicode="&#xe90b;" glyph-name="icon_facebook-f" horiz-adv-x="550" d="M512 384l28.8 185.6h-176v118.4c-3.2 51.2 32 96 83.2 99.2 0 0 0 0 3.2 0 6.4 0 12.8 0 19.2 0h80v160c-48 6.4-96 12.8-144 12.8-124.8 9.6-233.6-83.2-243.2-208 0-12.8 0-28.8 0-41.6v-140.8h-163.2v-185.6h163.2v-448h201.6v448h147.2z" />
<glyph unicode="&#xe90c;" glyph-name="icon_facebook-square" d="M914.24 960h-804.48c-0.095 0-0.208 0-0.32 0-60.442 0-109.44-48.998-109.44-109.44 0-0.113 0-0.225 0.001-0.338v0.017-804.48c0-0.095 0-0.208 0-0.32 0-60.442 48.998-109.44 109.44-109.44 0.113 0 0.225 0 0.338 0.001h313.583v348.16h-144v163.84h144v124.8c0 142.080 84.48 220.8 214.080 220.8 45.75-0.7 89.987-4.746 133.172-11.908l-5.172 0.708v-139.52h-72.32c-3.207 0.443-6.913 0.696-10.679 0.696-41.49 0-75.804-30.724-81.431-70.661l-0.050-0.435c-0.306-2.688-0.48-5.804-0.48-8.96s0.174-6.272 0.514-9.338l-0.034 0.378v-106.56h157.12l-24.96-163.84h-132.48v-348.16h313.6c60.546 0.181 109.579 49.214 109.76 109.743v804.497c-0.181 60.546-49.214 109.579-109.743 109.76h-0.017z" />
<glyph unicode="&#xe90d;" glyph-name="icon_instagram" d="M512 710.4c-144 0-262.4-118.4-262.4-262.4s118.4-262.4 262.4-262.4c144 0 262.4 118.4 262.4 262.4v0c0 144-115.2 262.4-262.4 262.4 0 0 0 0 0 0zM512 278.4c-96 0-169.6 76.8-169.6 172.8s76.8 169.6 172.8 169.6c96 0 169.6-76.8 169.6-172.8 0-92.8-76.8-169.6-172.8-169.6 0 0 0 0 0 0zM848 723.2c0-35.2-28.8-60.8-60.8-60.8-35.2 0-60.8 28.8-60.8 60.8 0 35.2 28.8 60.8 60.8 60.8 0 0 0 0 0 0v0c32 0 60.8-28.8 60.8-60.8v0 0zM1020.8 659.2c3.2 80-28.8 156.8-83.2 214.4-57.6 54.4-134.4 86.4-214.4 83.2-83.2 3.2-339.2 3.2-422.4 0-80 3.2-156.8-28.8-214.4-83.2-54.4-57.6-86.4-134.4-83.2-214.4-3.2-83.2-3.2-339.2 0-422.4-3.2-80 28.8-156.8 83.2-214.4 57.6-54.4 134.4-86.4 214.4-83.2 83.2-3.2 339.2-3.2 422.4 0 80-3.2 156.8 28.8 214.4 83.2 54.4 57.6 83.2 134.4 83.2 214.4 6.4 83.2 6.4 339.2 0 422.4zM912 147.2c-19.2-44.8-54.4-80-99.2-96-99.2-19.2-201.6-28.8-300.8-19.2-102.4-6.4-201.6 0-300.8 19.2-44.8 19.2-80 51.2-96 96-22.4 99.2-28.8 201.6-22.4 300.8-6.4 102.4 0 201.6 19.2 300.8 16 44.8 51.2 80 96 99.2 99.2 19.2 201.6 28.8 304 19.2 102.4 6.4 201.6 0 300.8-19.2 48-16 83.2-54.4 99.2-99.2 19.2-99.2 25.6-201.6 19.2-300.8 9.6-102.4 3.2-201.6-19.2-300.8v0z" />
<glyph unicode="&#xe90e;" glyph-name="icon_linkedin" d="M950.4 960h-876.8c-41.6 0-73.6-32-73.6-73.6 0 0 0 0 0 0v-876.8c0-41.6 32-73.6 73.6-73.6 0 0 0 0 0 0h876.8c41.6 0 73.6 32 73.6 73.6 0 0 0 0 0 0v876.8c0 41.6-32 73.6-73.6 73.6 0 0 0 0 0 0zM310.4 83.2h-153.6v486.4h153.6v-486.4zM233.6 636.8c-48 0-89.6 38.4-89.6 89.6s38.4 89.6 89.6 89.6 89.6-38.4 89.6-89.6v0c0-48-41.6-89.6-89.6-89.6zM880 83.2h-150.4v236.8c0 57.6 0 131.2-80 131.2s-92.8-60.8-92.8-124.8v-243.2h-150.4v486.4h147.2v-67.2h3.2c28.8 51.2 86.4 80 144 80 153.6 0 182.4-102.4 182.4-233.6v-265.6z" />
<glyph unicode="&#xe90f;" glyph-name="icon_pencil" d="M908.8-41.6l92.8 92.8c32 32 32 83.2 0 115.2l-720 720-281.6 73.6 73.6-281.6 720-720c32-28.8 83.2-28.8 115.2 0 0 0 0 0 0 0zM128 681.6l150.4 150.4 624-624-147.2-147.2-627.2 620.8zM240 854.4l-134.4-134.4-48 182.4 182.4-48zM931.2 179.2l41.6-41.6c16-16 16-41.6 0-54.4 0 0 0 0 0 0l-92.8-92.8c-16-16-41.6-16-54.4 0 0 0 0 0 0 0l-41.6 41.6 147.2 147.2zM248.351 681.717l29.399 29.432 513.928-513.347-29.399-29.432-513.928 513.347z" />
<glyph unicode="&#xe910;" glyph-name="icon_phone" d="M992 236.8l-224 96c-19.2 9.6-41.6 3.2-54.4-12.8l-99.2-121.6c-156.8 73.6-281.6 198.4-355.2 355.2l124.8 96c16 12.8 22.4 35.2 12.8 54.4l-96 224c-9.6 22.4-32 35.2-57.6 32l-204.8-48c-22.4-6.4-38.4-25.6-38.4-48 0-512 416-928 928-928v0c22.4 0 41.6 16 48 38.4l48 208c3.2 22.4-9.6 44.8-32 54.4z" />
<glyph unicode="&#xe911;" glyph-name="pil-blaa" horiz-adv-x="1506" d="M993.882 960l-90.353-90.353 358.4-355.388h-1261.929v-127.699h1261.929l-361.412-359.605 90.955-90.955 512 512z" />
<glyph unicode="&#xe912;" glyph-name="pil-down-gul" d="M1024 448l-90.453 89.6-357.547-357.12v779.52h-128v-778.667l-357.12 356.267-90.88-90.88 512-512z" />
<glyph unicode="&#xe913;" glyph-name="pil-gul" horiz-adv-x="1506" d="M995.689 960l-90.353-90.353 357.195-357.798h-1262.532v-129.506h1260.725l-357.798-357.195 90.955-90.955 512 512z" />
<glyph unicode="&#xe914;" glyph-name="icon_play" d="M512 960c-282.77 0-512-229.23-512-512s229.23-512 512-512c282.77 0 512 229.23 512 512v0 0c0 282.77-229.23 512-512 512v0zM750.72 398.4l-363.2-208.32c-6.963-3.957-15.296-6.29-24.174-6.29-18.541 0-34.706 10.173-43.217 25.242l-0.129 0.247c-3.827 6.79-6.082 14.907-6.082 23.551 0 0.158 0.001 0.315 0.002 0.473v-0.024 429.44c-0.001 0.101-0.001 0.22-0.001 0.34 0 27.217 22.063 49.28 49.28 49.28 8.943 0 17.33-2.382 24.56-6.547l-0.239 0.127 363.2-220.8c15.317-8.64 25.49-24.805 25.49-43.346 0-8.878-2.333-17.211-6.418-24.42l0.128 0.246c-4.599-8.084-11.116-14.601-18.953-19.070l-0.247-0.13z" />
<glyph unicode="&#xe915;" glyph-name="icon_quote" horiz-adv-x="1261" d="M422.4 6.4c-48-48-112-73.6-179.2-70.4-67.2-3.2-131.2 22.4-176 70.4-48 54.4-70.4 128-67.2 198.4 0 217.6 134.4 467.2 400 755.2l182.4-147.2c-6.4-12.8-25.6-38.4-54.4-80-28.8-44.8-57.6-92.8-80-140.8-22.4-38.4-35.2-83.2-38.4-128 0-16 3.2-32 9.6-44.8 6.4-16 12.8-32 22.4-48 32-51.2 51.2-112 51.2-172.8 3.2-73.6-22.4-140.8-70.4-192zM1097.6 6.4c-48-48-112-73.6-182.4-70.4-67.2-3.2-131.2 22.4-176 70.4-44.8 54.4-70.4 128-64 198.4 0 214.4 131.2 464 396.8 755.2l185.6-147.2c-9.6-9.6-28.8-38.4-54.4-80-28.8-44.8-57.6-92.8-80-140.8-22.4-38.4-35.2-83.2-38.4-128 0-16 3.2-32 9.6-44.8 6.4-16 12.8-32 22.4-48 32-51.2 51.2-112 51.2-172.8 3.2-73.6-22.4-140.8-70.4-192z" />
<glyph unicode="&#xe916;" glyph-name="icon_trustpilot" horiz-adv-x="6435" d="M5068.8 604.8h-361.6l-108.8 329.6c-6.4 19.2-32 32-51.2 22.4-9.6-3.2-19.2-12.8-22.4-22.4l-108.8-329.6h-364.8c-22.4 0-38.4-19.2-38.4-38.4 0 0 0 0 0 0 0-3.2 0-3.2 0-6.4 0-12.8 6.4-22.4 16-28.8l297.6-208-115.2-332.8c-6.4-16 0-35.2 12.8-44.8 6.4-6.4 12.8-9.6 22.4-9.6s16 3.2 25.6 9.6l291.2 208 291.2-208c6.4-6.4 16-9.6 25.6-9.6s16 3.2 22.4 9.6 19.2 28.8 12.8 44.8l-118.4 329.6 294.4 211.2 6.4 6.4c16 12.8 16 38.4 3.2 54.4 0 0 0 0 0 0-6.4 9.6-19.2 12.8-32 12.8v0zM3734.4 604.8h-361.6l-108.8 329.6c-6.4 19.2-28.8 32-51.2 25.6 0 0 0 0 0 0-12.8-3.2-19.2-12.8-25.6-25.6l-108.8-329.6h-364.8c-22.4 0-38.4-19.2-38.4-38.4 0-3.2 0-3.2 0-6.4 0-12.8 6.4-22.4 16-28.8l297.6-211.2-115.2-329.6c-6.4-16 0-35.2 12.8-44.8 6.4-6.4 12.8-9.6 22.4-9.6s16 3.2 25.6 9.6l291.2 208 291.2-208c6.4-6.4 16-9.6 25.6-9.6s16 3.2 22.4 9.6 19.2 28.8 12.8 44.8l-118.4 329.6 294.4 211.2 6.4 6.4c16 12.8 16 38.4 3.2 54.4-6.4 9.6-16 12.8-28.8 12.8v0zM2396.8 604.8h-361.6l-108.8 329.6c-6.4 19.2-28.8 32-51.2 25.6 0 0 0 0 0 0-12.8-3.2-19.2-12.8-25.6-25.6l-108.8-329.6h-364.8c-22.4 0-38.4-19.2-38.4-38.4 0-3.2 0-3.2 0-6.4 0-12.8 6.4-22.4 16-28.8l297.6-211.2-115.2-329.6c-6.4-16 0-35.2 12.8-44.8 6.4-6.4 12.8-9.6 22.4-9.6s16 3.2 25.6 9.6l291.2 208 291.2-208c6.4-6.4 16-9.6 25.6-9.6s16 3.2 22.4 9.6 19.2 28.8 12.8 44.8l-115.2 329.6 294.4 211.2 6.4 6.4c16 12.8 16 38.4 3.2 54.4-6.4 9.6-19.2 12.8-32 12.8v0zM1059.2 604.8h-361.6l-108.8 329.6c-6.4 19.2-28.8 32-51.2 25.6 0 0 0 0 0 0-12.8-3.2-22.4-12.8-25.6-25.6l-108.8-329.6h-364.8c-22.4 0-38.4-19.2-38.4-38.4 0-3.2 0-3.2 0-6.4 0-12.8 6.4-22.4 16-28.8l297.6-211.2-112-329.6c-6.4-16 0-35.2 12.8-44.8 6.4-6.4 12.8-9.6 22.4-9.6s16 3.2 25.6 9.6l291.2 208 291.2-208c6.4-6.4 16-9.6 25.6-9.6s16 3.2 22.4 9.6 19.2 28.8 12.8 44.8l-118.4 329.6 294.4 211.2 6.4 6.4c16 12.8 16 38.4 3.2 54.4 0 0 0 0 0 0-6.4 9.6-19.2 12.8-32 12.8v0zM6393.6 604.8h-361.6l-112 329.6c-6.4 19.2-32 32-51.2 22.4-9.6-3.2-19.2-12.8-22.4-22.4l-108.8-329.6h-361.6c-22.4 0-38.4-19.2-38.4-38.4 0-3.2 0-3.2 0-6.4 0-12.8 6.4-22.4 16-28.8l297.6-208-115.2-332.8c-6.4-16 0-35.2 12.8-44.8 6.4-6.4 12.8-9.6 22.4-9.6s16 3.2 25.6 9.6l291.2 208 291.2-208c6.4-6.4 16-9.6 25.6-9.6s16 3.2 22.4 9.6 19.2 28.8 12.8 44.8l-121.6 329.6 294.4 211.2 6.4 6.4c16 12.8 16 38.4 3.2 54.4 0 0 0 0 0 0-6.4 9.6-16 12.8-28.8 12.8v0zM6275.2 518.4l-195.2-140.8c-25.6-19.2-35.2-48-25.6-76.8l73.6-214.4c3.2-6.4 0-9.6-6.4-12.8 0 0 0 0 0 0-3.2 0-6.4 0-9.6 0l-192 134.4c-25.6 16-38.4 44.8-38.4 73.6v518.4c0 3.2 0 3.2 3.2 3.2 0 0 0 0 0 0 3.2 0 3.2 0 3.2-3.2v0l73.6-217.6c9.6-28.8 35.2-48 64-48h243.2c6.4 0 9.6-6.4 9.6-9.6 0 0 0 0 0 0 3.2 0 0-3.2-3.2-6.4v0z" />
<glyph unicode="&#xe917;" glyph-name="Blues-BbH-Logo_aftryk" horiz-adv-x="781" d="M258.96 9.152c-3.465 0.901-6.443 2.643-8.811 4.999l0.001-0.001c-6.904 6.733-8.388 16.98-3.39 23.056 7.514 9.138 14.793 18.745 21.635 28.508 15.839 22.492 30.927 48.179 43.878 75.090l1.422 3.279c11.63 23.737 23.278 52.693 32.975 82.529l1.391 4.947c8.31 24.73 16.646 56.321 23.182 88.565l0.937 5.534c6.342 31.944 11.153 65.060 14.34 98.27 2.999 31.241 4.53 63.030 4.686 97.036 0 9.372 6.811 17.308 15.152 17.667v0c8.341 0.328 15.043-7.186 14.98-16.745-0.234-35.693-1.89-69.106-5.045-101.956-3.358-34.897-8.357-69.715-14.918-103.284-7.787-39.843-16.43-73.084-26.809-105.55l1.816 6.577c-11.455-36.693-23.5-67.219-37.427-96.681l1.921 4.519c-14.875-31.835-30.496-58.895-48.125-84.462l1.263 1.937c-7.076-10.294-14.605-20.401-22.4-30.023-2.267-2.623-5.599-4.273-9.317-4.273-1.188 0-2.336 0.168-3.423 0.483l0.087-0.022zM352.091-41.678c-3.319 0.784-6.189 2.38-8.49 4.569l0.008-0.007c-7.201 6.623-9.185 17.339-4.514 24.056 9.138 13.106 17.886 26.946 26.040 41.098 15.038 25.699 29.856 56.093 42.457 87.613l1.671 4.737c11.181 27.184 22.631 61.492 32.037 96.635l1.454 6.384c8.383 30.059 16.675 68.891 22.942 108.398l0.849 6.492c8.763 57.953 14.621 180.716 15.168 188.839 0.422 48.534-32.71 85.82-74.464 82.68-1.421-0.094-2.921-0.266-4.468-0.469-40.067-5.67-71.199-44.347-70.918-87.773 0-0.297 0-0.594 0-0.89-0.187-4.546-5.030-111.407-14.668-163.205-7.191-38.718-15.926-71.929-26.781-104.165l1.553 5.317c-11.253-33.971-23.477-62.626-37.728-90.060l1.598 3.38c-14.721-28.562-30.516-53.088-48.357-75.939l0.792 1.053c-4.686-5.951-9.529-11.856-14.527-17.558s-14.73-5.092-21.478 1.421-8.092 16.277-3.015 21.978c4.796 5.389 9.482 10.934 13.949 16.574 16.383 20.616 31.544 43.765 44.51 68.255l1.18 2.444c12.18 22.756 23.919 49.786 33.532 77.804l1.193 4.001c8.961 25.507 17.335 56.862 23.5 89.002l0.696 4.363c8.919 47.128 13.512 148.147 13.809 155.52-0.422 59.593 43.113 113.766 99.566 122.669 2.14 0.328 4.249 0.578 6.248 0.734 59.14 5.405 105.471-47.503 104.346-116.624 0-0.266 0-0.531 0-0.797-0.453-5.436-6.608-133.354-15.902-195.993-7.309-48.194-15.802-88.825-26.253-128.664l1.9 8.525c-11.169-43.536-22.927-79.452-36.649-114.381l2.284 6.598c-14.66-38.030-29.886-69.875-47.215-100.368l1.914 3.66c-8.373-14.824-17.37-29.336-26.758-43.066-2.21-3.179-5.844-5.234-9.959-5.234-1.085 0-2.137 0.143-3.138 0.411l0.085-0.019zM460.811-63.781c-3.015 0.583-5.658 1.886-7.836 3.723l0.026-0.021c-7.56 6.139-10.325 17.183-6.248 24.806 8.779 16.324 17.183 33.428 24.853 50.783 14.25 31.011 28.639 69.31 40.556 108.683l1.761 6.77c11.248 35.897 22.446 81.901 31.085 128.8l1.203 7.865c14.543 77.636 23.75 167.897 25.485 259.986l0.024 1.599c-0.417 26.124-4.383 51.158-11.435 74.863l0.501-1.961c-14.699 50.33-42.035 84.352-81.931 100.238-24.415 9.794-47.706 13.059-70.949 10.497-7.308-0.832-13.748-1.991-20.044-3.521l1.096 0.225c-28.836-6.811-56.516-21.791-79.791-42.41-20.766-18.475-37.656-40.801-49.636-65.918l-0.537-1.251c-11.143-23.366-17.651-50.781-17.651-79.716 0-0.833 0.005-1.666 0.016-2.496l-0.001 0.126c0-0.203 0-0.406 0-0.609v-0.609c-0.203-5.28-7.81-128.715-24.228-185.886-10.142-36.032-22.448-67.106-37.479-96.558l1.364 2.943c-14.282-28.097-30.183-52.304-48.4-74.541l0.57 0.717c-1.468-1.796-3.124-3.733-4.983-5.92-4.905-5.748-14.449-5.374-21.26 0.64s-8.31 15.308-3.405 20.932c1.796 2.062 3.343 3.874 4.686 5.545 16.793 20.164 31.92 42.813 44.533 66.983l1.001 2.107c13.027 24.846 24.728 53.918 33.523 84.226l0.843 3.391c14.949 51.314 22.416 166.548 22.759 175.795-0.010 0.794-0.016 1.732-0.016 2.672 0 33.535 7.575 65.302 21.107 93.681l-0.565-1.316c14.833 31.147 34.747 57.54 58.953 79.241l0.233 0.206c27.586 24.681 60.561 42.957 94.927 51.548 6.201 1.639 13.901 3.118 21.751 4.119l0.946 0.098c27.696 3.421 55.141 0 83.524-11.153 47.799-18.745 81.337-61.014 98.145-121.185 7.351-25.465 11.632-54.729 11.747-84.975v-0.064c-2.089-97.571-11.578-191.35-27.946-282.744l1.625 10.944c-10.045-57.108-21.43-104.991-35.254-151.828l2.45 9.68c-13.942-48.185-28.591-88.116-45.584-126.783l2.549 6.503c-7.81-18.104-16.402-35.928-25.368-52.97-2.022-4.029-6.121-6.746-10.855-6.746-0.863 0-1.705 0.090-2.517 0.262l0.079-0.014zM585.527-32.493c-2.441 0.324-4.632 1.183-6.521 2.456l0.054-0.034c-7.904 5.139-11.716 16.277-8.529 24.993 5.717 15.621 11.169 31.601 16.214 47.534 13.889 42.054 27.652 95.52 38.305 150.098l1.466 9.014c20.307 105.502 31.585 217.128 34.834 329.597 0 0.25 0 0.484 0 0.734 0.108 3.527 0.169 7.676 0.169 11.839 0 29.72-3.122 58.711-9.055 86.663l0.483-2.716c-6.248 30.398-15.871 57.937-28.648 81.649-15.855 29.429-36.818 53.11-62.483 70.075-36.568 24.087-69.45 35.928-102.769 38.443-4.825 0.368-10.45 0.578-16.123 0.578-11.951 0-23.685-0.932-35.133-2.726l1.27 0.164c-17.097-2.621-32.264-6.431-46.846-11.491l1.843 0.556c-32.036-11.196-59.801-26.232-84.63-44.956l0.778 0.562c-27.917-20.809-51.843-44.894-71.834-72.054l-0.661-0.941c-39.224-53.938-58.734-114.031-57.156-174.062 1.687-66.029-9.685-132.136-33.756-191.463-12.010-29.52-26.321-54.977-43.348-78.326l0.719 1.035c-4.389-6.014-13.731-6.576-20.838-1.437s-9.372 13.902-4.921 19.776c15.379 20.688 28.863 44.272 39.372 69.408l0.82 2.213c22.666 55.047 33.241 116.312 31.444 177.42-1.937 65.607 19.417 131.401 63.061 191.713 23.186 31.62 49.949 58.77 80.142 81.628l0.977 0.709c27.102 20.771 58.348 38.069 91.999 50.376l2.444 0.782c14.34 5.286 31.404 9.803 48.998 12.757l1.723 0.239c12.352 2.137 26.578 3.359 41.088 3.359 5.329 0 10.619-0.165 15.865-0.489l-0.719 0.036c37.662-2.421 74.245-15.199 114.203-41.473 29.539-19.401 53.407-46.722 71.277-80.743 14.34-27.071 24.759-58.421 31.523-92.787 5.653-27.27 8.889-58.609 8.889-90.703 0-5.704-0.102-11.385-0.305-17.039l0.023 0.819c-3.702-116.046-15.261-231.405-35.678-340.531-12.239-66.014-26.13-121.463-42.975-175.61l2.877 10.734c-5.092-16.542-10.606-33.147-16.386-49.33-2.359-6.467-7.701-9.763-13.543-9.044zM723.973 118.544c-1.753 0.098-3.383 0.532-4.858 1.236l0.078-0.034c-7.982 3.671-12.622 14.48-10.341 24.134 20.963 89.882 30.054 190.744 35.256 259.304 5.483 74.636 6.576 128.23 6.529 128.746 0 0.187 0 0.375 0 0.562 2.343 63.889-4.889 125.356-22.9 181.7-17.183 53.704-44.566 101.535-80.478 137.119-30.297 30.455-68.489 53.028-111.249 64.39l-1.72 0.389c-34.178 8.857-70.746 10.56-108.173 5.452-5.342-0.719-10.669-1.562-15.839-2.531-31.495-6.111-59.398-15.167-85.689-27.146l2.368 0.966c-33.148-14.926-61.667-31.919-87.97-51.7l1.166 0.839c-27.783-20.764-52.232-43.158-74.284-67.746l-0.414-0.47c-22.733-25.201-43.030-53.394-60.039-83.68l-1.21-2.343c-32.46-59.359-47.143-119.28-44.847-179.17 2.171-55.532-8.092-110.22-30.242-158.066-3.124-6.701-11.887-9.185-19.635-5.717s-11.512 11.419-8.451 17.917c20.604 43.738 30.054 93.521 27.82 144.117-2.734 63.389 12.746 126.965 47.69 191.104 19.775 35.463 41.722 66.102 66.668 94.002l-0.437-0.497c24.551 27.622 51.192 52.325 80.031 74.292l1.369 1c27.588 21.123 58.83 40.128 92.029 55.645l3.116 1.308c26.251 12.38 56.859 22.644 88.802 29.258l2.704 0.468c5.686 1.125 11.544 2.124 17.386 2.984 41.114 6.061 81.228 4.577 118.717-4.874 48.571-12.465 90.282-37.047 123.173-70.359l0.027-0.027c38.927-38.88 68.294-91.225 86.507-149.959 19.12-61.53 26.555-128.574 23.79-198.164 0-4.858-1.406-57.797-6.889-132.495-5.405-70.981-14.605-175.717-35.928-269.832-1.734-7.732-7.357-12.434-13.637-12.122z" />
<glyph unicode="&#xe918;" d="M1024 448c0-282.77-229.23-512-512-512s-512 229.23-512 512c0 282.77 229.23 512 512 512s512-229.23 512-512z" />
<glyph unicode="&#xe919;" d="M771.012 448l-421.647-195.765v391.529z" />
<glyph unicode="&#xe91a;" glyph-name="twitter" horiz-adv-x="1044" d="M932.202 960h-820.364c-0.194 0.001-0.424 0.002-0.654 0.002-60.956 0-110.455-49.049-111.184-109.832l-0.001-0.069v-804.525c0.728-60.674 50.083-109.58 110.861-109.58 0.344 0 0.687 0.002 1.030 0.005h820.312c0.386-0.005 0.841-0.008 1.297-0.008 60.714 0 109.997 48.946 110.541 109.532v804.577c-0.729 60.852-50.229 109.901-111.184 109.901-0.23 0-0.46-0.001-0.689-0.002h0.035zM818.424 597.010c0-6.465 0-12.929 0-19.394-0.368-235.899-191.686-426.99-427.636-426.99-0.227 0-0.454 0-0.682 0.001h-6.43c-0.578-0.003-1.262-0.004-1.947-0.004-86.303 0-166.755 25.054-234.478 68.286l1.758-1.049c9.963-1.25 21.493-1.963 33.19-1.963 1.287 0 2.571 0.009 3.854 0.026l-0.195-0.002c0.047 0 0.102 0 0.157 0 71.708 0 137.736 24.324 190.281 65.17l-0.7-0.524c-66.322 0.658-122.459 43.533-142.872 103.008l-0.32 1.073c8.506-1.491 18.3-2.344 28.293-2.344 14.512 0 28.603 1.798 42.065 5.182l-1.187-0.253c-69.969 13.781-122.080 74.44-122.505 147.348v1.985c19.987-11.102 43.663-18.044 68.865-19.061l0.307-0.010c-41.090 26.951-67.921 72.695-68.202 124.725v0.042c0 0.072 0 0.157 0 0.242 0 27.86 7.815 53.894 21.373 76.031l-0.363-0.637c76.222-91.323 188.036-150.723 313.84-156.73l0.988-0.038c-2.346 9.968-3.69 21.414-3.69 33.174 0 71.497 49.707 131.384 116.447 146.988l1.021 0.201c10.662 2.466 22.906 3.879 35.479 3.879 0.027 0 0.054 0 0.081 0h-0.004c0.014 0 0.031 0 0.048 0 43.779 0 83.305-18.208 111.418-47.464l0.049-0.051c36.525 7.058 69.034 19.635 98.393 36.98l-1.423-0.778c-11.929-35.367-35.711-64.074-66.524-82.043l-0.708-0.381c32.637 3.513 62.497 11.737 90.149 24.029l-1.906-0.757c-21.123-30.452-46.4-56.243-75.363-77.263l-0.919-0.636z" />
<glyph unicode="&#xe91b;" glyph-name="citat" horiz-adv-x="1281" d="M404.592 4.53c-41.23-42.369-98.803-68.654-162.515-68.654-2.635 0-5.259 0.045-7.872 0.134l0.379-0.010c-3.001-0.138-6.52-0.217-10.057-0.217-61.968 0-118.292 24.163-160.065 63.582l0.114-0.107c-41.041 46.254-66.108 107.491-66.108 174.582 0 9.995 0.556 19.86 1.64 29.566l-0.108-1.193c8.028 130.861 48.672 250.765 113.824 353.606l-1.804-3.048c87.861 154.872 188.355 288.53 303.651 407.786l-0.537-0.558 162.1-131.789c-9.225-11.861-28.994-39.537-59.305-85.663-28.48-42.546-58.239-92.987-85.297-145.057l-4.32-9.136c-23.808-40.944-39.073-89.555-42.131-141.449l-0.042-0.884c3.325-35.643 15.158-67.967 33.431-95.669l-0.484 0.781c29.666-48.106 47.662-106.186 48.758-168.388l0.004-0.302c0.192-3.648 0.301-7.92 0.301-12.217 0-63.815-24.126-121.995-63.754-165.917l0.194 0.219zM1108.345 4.53c-41.227-42.346-98.785-68.615-162.478-68.615-2.184 0-4.362 0.031-6.531 0.092l0.319-0.007c-2.636-0.104-5.731-0.163-8.839-0.163-62.766 0-119.901 24.109-162.65 63.571l0.163-0.149c-41.752 46.441-67.286 108.192-67.286 175.906 0 9.527 0.505 18.936 1.491 28.202l-0.099-1.153c8.738 130.822 49.278 250.587 113.881 353.744l-1.86-3.185c88.869 154.673 189.728 288.268 305.027 407.847l-0.594-0.62 162.1-131.789c-9.225-11.861-28.994-39.537-59.305-85.663-27.985-42.379-57.325-92.835-83.977-144.896l-4.322-9.297c-23.808-40.944-39.073-89.555-42.131-141.449l-0.042-0.884c3.329-35.501 14.662-67.78 32.166-95.809l-0.536 0.921c28.787-48.386 46.997-106.112 50.046-167.827l0.034-0.863c0.215-3.819 0.337-8.287 0.337-12.784 0-63.867-24.691-121.967-65.047-165.276l0.134 0.145z" />
<glyph unicode="&#xe91c;" glyph-name="facebook" d="M914.101 960h-804.525c-60.517 0-109.576-49.059-109.576-109.576v0-804.848c0-60.517 49.059-109.576 109.576-109.576h313.859v348.121h-144.162v163.879h144.162v124.768c0 142.222 84.364 220.768 213.98 220.768 45.541-0.834 89.442-4.799 132.362-11.696l-5.332 0.707v-138.99h-71.758c-3.217 0.448-6.934 0.705-10.711 0.705-41.424 0-75.655-30.8-81.040-70.748l-0.046-0.421c-0.386-2.719-0.606-5.859-0.606-9.051s0.22-6.332 0.646-9.406l-0.040 0.356v-106.343h157.091l-25.212-163.879h-131.879v-348.121h313.535c0 0 0 0 0 0 60.582 0 109.715 49.019 109.898 109.558v804.866c-0.184 60.556-49.317 109.576-109.899 109.576 0 0 0 0 0 0v0z" />
<glyph unicode="&#xe91d;" glyph-name="instagram" d="M284.444 960c-157.094 0-284.444-127.35-284.444-284.444v0-455.111c0-157.094 127.35-284.444 284.444-284.444v0h455.111c157.094 0 284.444 127.35 284.444 284.444v0 455.434c0 157.094-127.35 284.444-284.444 284.444v0h-455.111zM853.333 846.222c31.419 0 56.889-25.47 56.889-56.889s-25.47-56.889-56.889-56.889c-31.419 0-56.889 25.47-56.889 56.889v0c0 31.419 25.47 56.889 56.889 56.889v0zM512 732.444c157.094 0 284.444-127.35 284.444-284.444s-127.35-284.444-284.444-284.444c-157.094 0-284.444 127.35-284.444 284.444v0c0 157.094 127.35 284.444 284.444 284.444v0zM512 618.667c-94.257 0-170.667-76.41-170.667-170.667s76.41-170.667 170.667-170.667c94.257 0 170.667 76.41 170.667 170.667v0c0 0.096 0 0.21 0 0.324 0 94.078-76.265 170.343-170.343 170.343-0.114 0-0.227 0-0.341 0h0.018z" />
<glyph unicode="&#xe91e;" glyph-name="linkedin" d="M901.818 960h-779.96c-67.301 0-121.859-54.558-121.859-121.859v0-780.283c0-67.301 54.558-121.859 121.859-121.859v0h779.96c0.096 0 0.21 0 0.323 0 67.301 0 121.859 54.558 121.859 121.859 0 0 0 0 0 0v0 779.636c0.001 0.192 0.002 0.419 0.002 0.647 0 67.301-54.558 121.859-121.859 121.859-0.114 0-0.228 0-0.342 0h0.018zM316.768 569.859v-463.192h-146.101v463.192zM170.667 704.646c2.031 34.059 30.149 60.912 64.538 60.912 1.517 0 3.021-0.052 4.511-0.155l-0.201 0.011h4.202c2.171 0.252 4.686 0.396 7.235 0.396 33.888 0 61.834-25.439 65.785-58.262l0.031-0.316v-2.263c-1.391-34.603-29.78-62.128-64.597-62.128-1.040 0-2.075 0.025-3.104 0.073l0.145-0.005h-5.495c-2.074-0.229-4.479-0.36-6.914-0.36-34.054 0-62.137 25.564-66.106 58.547l-0.031 0.318zM853.333 106.667h-146.424v243.717c0 48.808-24.242 96.97-85.333 96.97h-1.939c-58.828 0-83.394-50.101-83.394-96.97v-243.717h-146.424v463.192h146.424v-62.384c33.65 38.355 82.764 62.437 137.502 62.437 1.546 0 3.087-0.019 4.624-0.057l-0.227 0.004c96.97 0 175.192-66.586 175.192-201.374z" />
<glyph unicode="&#xe91f;" glyph-name="citat1" horiz-adv-x="1282" d="M876.396 891.47c41.434 42.367 99.176 68.636 163.054 68.636 2.445 0 4.882-0.039 7.309-0.115l-0.355 0.009c3.151 0.153 6.843 0.24 10.556 0.24 61.814 0 117.98-24.18 159.556-63.597l-0.104 0.098c40.894-46.215 65.863-107.344 65.863-174.305 0-9.161-0.467-18.214-1.38-27.134l0.093 1.12c-8.208-130.851-48.826-250.719-113.838-353.64l1.818 3.082c-87.964-154.842-188.448-288.489-303.673-407.809l0.558 0.581-162.1 131.789c9.225 11.861 28.994 39.537 59.305 85.663s61.941 101.477 89.616 154.193c23.99 40.9 39.283 89.55 42.137 141.514l0.036 0.818c-3.862 35.607-15.619 67.831-33.479 95.778l0.532-0.89c-29.901 48.034-47.939 106.172-48.76 168.465l-0.002 0.225c-0.134 3.040-0.211 6.605-0.211 10.188 0 63.606 24.096 121.583 63.658 165.302l-0.188-0.211zM172.644 891.47c41.633 42.346 99.532 68.588 163.56 68.588 1.804 0 3.603-0.021 5.397-0.062l-0.267 0.005c2.488 0.092 5.411 0.144 8.346 0.144 62.92 0 120.212-24.095 163.153-63.561l-0.174 0.158c41.611-46.405 67.052-108.053 67.052-175.644 0-8.688-0.42-17.279-1.242-25.751l0.084 1.076c-8.446-130.837-49.028-250.658-113.856-353.685l1.836 3.126c-89.216-155.59-190.066-290.017-305.21-410.685l0.778 0.821-160.782 131.789c9.225 11.861 28.994 39.537 59.305 85.663s60.623 101.477 86.981 147.604c23.99 40.9 39.283 89.55 42.137 141.514l0.036 0.818c-4.245 35.472-15.46 67.594-32.253 96.029l0.624-1.141c-30.015 50.206-48.408 110.427-50.070 174.81l-0.010 0.47c-0.233 3.966-0.365 8.604-0.365 13.273 0 63.717 24.709 121.662 65.067 164.777l-0.125-0.135z" />
<glyph unicode="&#xe920;" glyph-name="pil-cirkel" d="M512.081 960c-282.815 0-512.081-229.267-512.081-512.081s229.267-512.081 512.081-512.081c282.815 0 512.081 229.267 512.081 512.081 0 0.057 0 0.114 0 0.172v-0.009c0 282.725-229.194 511.919-511.919 511.919-0.057 0-0.114 0-0.172 0h0.009zM651.356 425.167l-204.28-204.28c-5.872-5.826-13.96-9.426-22.889-9.426-0.009 0-0.018 0-0.027 0h0.001c-0.008 0-0.017 0-0.026 0-17.951 0-32.503 14.552-32.503 32.503 0 8.941 3.61 17.040 9.453 22.916l181.363 181.201-181.203 181.203c-5.885 5.885-9.525 14.015-9.525 22.996 0 17.961 14.56 32.521 32.521 32.521 8.98 0 17.111-3.64 22.996-9.525l204.117-204.117c5.889-5.883 9.533-14.014 9.533-22.996s-3.643-17.113-9.532-22.995v0z" />
<glyph unicode="&#xe921;" glyph-name="play" d="M512.081 960c-0.048 0-0.105 0-0.162 0-282.815 0-512.081-229.267-512.081-512.081s229.267-512.081 512.081-512.081c282.815 0 512.081 229.267 512.081 512.081 0 0.057 0 0.114 0 0.172v-0.009c0 282.725-229.194 511.919-511.919 511.919v0zM358.506 206.098v483.804l408.397-246.046z" />
</font>
</defs>
</svg>
