<svg xmlns="http://www.w3.org/2000/svg" width="211.027" height="75.918" viewBox="0 0 211.027 75.918">
  <g id="Lag_2" data-name="Lag 2" transform="translate(0 31.63)">
    <text id="P" transform="translate(0 24.37)" fill="#1d1d1b" font-size="60" font-family="Raleway" font-weight="500" letter-spacing="-0.03em"><tspan x="0" y="0">P</tspan></text>
    <text id="s" transform="translate(71.631 24.372)" fill="#1d1d1b" font-size="60" font-family="Raleway" font-weight="500"><tspan x="0" y="0">s</tspan></text>
    <text id="s-2" data-name="s" transform="translate(101.748 24.372)" fill="#1d1d1b" font-size="60" font-family="Raleway" font-weight="500"><tspan x="0" y="0">s</tspan></text>
    <text id="n" transform="translate(175.027 24.372)" fill="#1d1d1b" font-size="60" font-family="Raleway" font-weight="500"><tspan x="0" y="0">n</tspan></text>
    <text id="o" transform="translate(142.18 23.372)" fill="#1d1d1b" font-size="59" font-family="Raleway" font-weight="500"><tspan x="0" y="0">o</tspan></text>
    <text id="i" transform="translate(130.737 23.372)" fill="#1d1d1b" font-size="58" font-family="Raleway" font-weight="500"><tspan x="0" y="0">i</tspan></text>
    <path id="Path_974" data-name="Path 974" d="M317.065,432.225a.345.345,0,0,1-.021-.19.335.335,0,0,1,.316-.311c.225.013.454.018.682.013a10.434,10.434,0,0,0,1.713-.181,13.216,13.216,0,0,0,1.732-.453,16.616,16.616,0,0,0,1.718-.682c.563-.26,1.127-.558,1.674-.881.514-.3,1.021-.638,1.545-1.016a.326.326,0,0,1,.443.034h0a.3.3,0,0,1-.09.418c-.552.4-1.086.746-1.628,1.066-.575.339-1.166.651-1.757.928a17.819,17.819,0,0,1-1.8.724,14.211,14.211,0,0,1-1.815.488,11.088,11.088,0,0,1-1.791.2c-.238,0-.477,0-.713-.008A.233.233,0,0,1,317.065,432.225Z" transform="translate(-276.11 -412.817)" fill="#756149"/>
    <path id="Path_975" data-name="Path 975" d="M318.131,425.141a.35.35,0,0,1-.026-.182.366.366,0,0,1,.326-.339,8.894,8.894,0,0,0,.925-.06,13.173,13.173,0,0,0,1.915-.357,17.685,17.685,0,0,0,1.962-.638,21.54,21.54,0,0,0,2.033-.921c.991-.516,2.945-1.8,3.077-1.884a1.423,1.423,0,0,0,.438-2.072l-.057-.064a1.661,1.661,0,0,0-2.146-.107l-.015.01c-.072.047-1.77,1.171-2.675,1.6a14.384,14.384,0,0,1-1.806.72,11.545,11.545,0,0,1-1.739.415,9.117,9.117,0,0,1-1.685.107c-.145,0-.29-.013-.433-.026a.285.285,0,0,1-.218-.347.308.308,0,0,1,.3-.293q.205.02.41.029a8.627,8.627,0,0,0,1.6-.09,11.019,11.019,0,0,0,1.644-.378,13.478,13.478,0,0,0,1.708-.674,29.336,29.336,0,0,0,2.548-1.53,2.344,2.344,0,0,1,3,.163c.029.029.057.059.081.088a1.975,1.975,0,0,1-.625,2.913l-.013.01c-.088.054-2.126,1.394-3.194,1.954a23.075,23.075,0,0,1-2.116.977,18.36,18.36,0,0,1-2.05.659,14.078,14.078,0,0,1-2,.387c-.326.037-.651.062-.962.07A.228.228,0,0,1,318.131,425.141Z" transform="translate(-276.914 -403.73)" fill="#756149"/>
    <path id="Path_976" data-name="Path 976" d="M321.459,418.135a.326.326,0,0,1-.029-.163.4.4,0,0,1,.311-.374c.35-.047.707-.109,1.06-.186a18.3,18.3,0,0,0,2.252-.651,24.19,24.19,0,0,0,2.465-1.024,31.637,31.637,0,0,0,4.311-2.54,5.254,5.254,0,0,0,1-.985,2.709,2.709,0,0,0,.624-2.385,2.755,2.755,0,0,0-.633-1.21,2.976,2.976,0,0,0-.262-.254,3.544,3.544,0,0,0-1.548-.752,3.93,3.93,0,0,0-1.6-.02,3.6,3.6,0,0,0-1.465.651l-.008,0h-.01a22.828,22.828,0,0,1-3.132,1.711,9.916,9.916,0,0,1-1.845.488,7.672,7.672,0,0,1-1.672.091l-.148-.01a.326.326,0,0,1,.055-.622l.138.01a7.283,7.283,0,0,0,1.574-.073,9.109,9.109,0,0,0,1.732-.454,21.2,21.2,0,0,0,2.961-1.62,4.135,4.135,0,0,1,1.693-.749,4.722,4.722,0,0,1,1.885.02,4.328,4.328,0,0,1,1.858.884,3.973,3.973,0,0,1,.326.3,3.2,3.2,0,0,1,.765,1.411,3.245,3.245,0,0,1-.765,2.869,6.16,6.16,0,0,1-1.177,1.14,34.35,34.35,0,0,1-4.479,2.642,25.925,25.925,0,0,1-2.554,1.088,19.442,19.442,0,0,1-2.333.687c-.366.081-.738.15-1.1.2A.233.233,0,0,1,321.459,418.135Z" transform="translate(-279.364 -394.802)" fill="#756149"/>
    <path id="Path_977" data-name="Path 977" d="M326.861,411.076a.286.286,0,0,1-.036-.127.42.42,0,0,1,.29-.41c.3-.088.611-.182.913-.283a27.285,27.285,0,0,0,2.893-1.172,39.388,39.388,0,0,0,5.464-3.158l.011-.008a7.959,7.959,0,0,0,1.379-1.2,5.652,5.652,0,0,0,.936-1.356,3.642,3.642,0,0,0,.378-1.747,4.048,4.048,0,0,0-.56-2.012,4.294,4.294,0,0,0-.591-.747,4.887,4.887,0,0,0-.672-.57,5.872,5.872,0,0,0-1.628-.793,6.512,6.512,0,0,0-1.936-.3,5.384,5.384,0,0,0-3.32,1.071,9.14,9.14,0,0,1-3.324,1.628,7.023,7.023,0,0,1-1.667.21.285.285,0,0,1-.257-.3.272.272,0,0,1,.251-.3,6.31,6.31,0,0,0,1.552-.184,8.3,8.3,0,0,0,3.084-1.5,5.9,5.9,0,0,1,3.657-1.179,7.416,7.416,0,0,1,2.177.326,6.707,6.707,0,0,1,1.846.879,5.721,5.721,0,0,1,.768.635,4.735,4.735,0,0,1,.674.834,4.38,4.38,0,0,1,.651,2.222,4.047,4.047,0,0,1-.448,2,6.413,6.413,0,0,1-1.074,1.525,8.943,8.943,0,0,1-1.548,1.332,42.959,42.959,0,0,1-5.641,3.267,28.7,28.7,0,0,1-2.986,1.231c-.313.107-.63.208-.944.3A.239.239,0,0,1,326.861,411.076Z" transform="translate(-282.885 -386.175)" fill="#756149"/>
    <path id="Path_978" data-name="Path 978" d="M336.234,403.057a.244.244,0,0,1-.036-.088.412.412,0,0,1,.256-.428,34.247,34.247,0,0,0,4.386-2.364c1.21-.754,2.046-1.337,2.055-1.343h0a10.164,10.164,0,0,0,2.54-2.388,6.436,6.436,0,0,0,1.208-2.768,4.7,4.7,0,0,0-.269-2.465,5.329,5.329,0,0,0-1.13-1.726c-.07-.075-.143-.146-.217-.215a7.165,7.165,0,0,0-1.337-.99,8.63,8.63,0,0,0-1.755-.765,9.588,9.588,0,0,0-1.885-.4,8.834,8.834,0,0,0-2.011.023,6.512,6.512,0,0,0-3.256,1.317,6.562,6.562,0,0,1-2.768,1.3.278.278,0,0,1-.308-.239.264.264,0,0,1,.181-.326,5.861,5.861,0,0,0,2.53-1.187,6.887,6.887,0,0,1,3.474-1.4,9.766,9.766,0,0,1,2.182-.029,10.815,10.815,0,0,1,2.071.409,9.587,9.587,0,0,1,1.942.827,7.954,7.954,0,0,1,1.483,1.075c.081.075.163.153.241.234a5.762,5.762,0,0,1,1.255,1.88,5.008,5.008,0,0,1,.3,2.685,6.915,6.915,0,0,1-1.338,3.012,11.222,11.222,0,0,1-2.782,2.587c-.075.055-.905.627-2.116,1.379a36.4,36.4,0,0,1-4.559,2.471A.264.264,0,0,1,336.234,403.057Z" transform="translate(-288.382 -377.719)" fill="#756149"/>
    <text id="Brand_By_Hand" data-name="Brand By Hand" transform="translate(5.088 41.288)" fill="#1d1d1b" font-size="12" font-family="Raleway"><tspan x="0" y="0">B</tspan><tspan y="0" letter-spacing="-0.01em">r</tspan><tspan y="0">and </tspan><tspan y="0" letter-spacing="-0.01em">B</tspan><tspan y="0" letter-spacing="-0.03em">y</tspan><tspan y="0" xml:space="preserve"> Hand</tspan></text>
    <path id="Path_979" data-name="Path 979" d="M314.187,295.483l-1.737-3.419a22.2,22.2,0,0,1,9.28-3.821,21.141,21.141,0,0,1,2.865-.249,13.87,13.87,0,0,1,7.385,1.537,12.892,12.892,0,0,1,2.069,1.379,11.693,11.693,0,0,1,2.134,2.737,12.262,12.262,0,0,1,1.465,6.918v12.751a1.764,1.764,0,0,0,.856,1.836,1.363,1.363,0,0,0,.814.08v4.549a13.276,13.276,0,0,1-1.377.181,5.08,5.08,0,0,1-2.732-.207,3.385,3.385,0,0,1-1.255-1.034,3.689,3.689,0,0,1-.742-1.872l-.838-16.823a7.689,7.689,0,0,0-1.224-4.795,7.9,7.9,0,0,0-5.193-3.31,15.859,15.859,0,0,0-2.02-.042A17.928,17.928,0,0,0,314.187,295.483Z" transform="translate(-272.268 -295.202)" fill="#1d1d1b"/>
  </g>
</svg>
